<?xml version="1.0" encoding="iso-8859-1"?>
<!-- Generator: Adobe Illustrator 19.0.0, SVG Export Plug-In . SVG Version: 6.00 Build 0)  -->
<svg version="1.1" id="Layer_1" xmlns="http://www.w3.org/2000/svg" xmlns:xlink="http://www.w3.org/1999/xlink" x="0px" y="0px"
	 viewBox="0 0 473.931 473.931" style="enable-background:new 0 0 473.931 473.931;" xml:space="preserve">
<circle style="fill:#A28F9D;" cx="236.966" cy="236.966" r="236.966"/>
<circle style="fill:#5B4F3F;" cx="236.966" cy="260.651" r="122.228"/>
<g>
	<path style="fill:#E9B634;" d="M233.052,127.029c-3.098,0-5.613-2.518-5.613-5.613v-1.429c-0.015-11.308-0.022-21.987,6.907-28.928
		c4.333-4.333,10.642-6.44,19.285-6.44h51.135c3.098,0,5.613,2.514,5.613,5.613c0,3.098-2.514,5.613-5.613,5.613h-51.135
		c-5.519,0-9.223,1.029-11.341,3.147c-3.648,3.652-3.641,11.682-3.626,20.984v1.441C238.664,124.511,236.15,127.029,233.052,127.029
		z"/>
	<path style="fill:#E9B634;" d="M257.066,84.62h-3.435c-4.318,0-8.06,0.528-11.255,1.594l5.246,8.576L257.066,84.62z"/>
	<polygon style="fill:#E9B634;" points="267.891,84.62 257.459,95.845 266.926,95.845 277.347,84.62 	"/>
	<path style="fill:#E9B634;" d="M227.439,119.987v1.429c0,3.094,2.514,5.613,5.613,5.613c3.098,0,5.613-2.518,5.613-5.613v-1.441
		c-0.007-1.313,0-2.589,0.007-3.847L228,106.083C227.462,110.449,227.432,115.149,227.439,119.987z"/>
	<polygon style="fill:#E9B634;" points="288.168,84.62 277.747,95.845 287.528,95.845 297.949,84.62 	"/>
	<path style="fill:#E9B634;" d="M234.346,91.056c-1.826,1.826-3.143,3.929-4.135,6.215l9.141,8.606
		c0.415-2.376,1.089-4.374,2.163-5.878l-6.073-9.912C235.076,90.401,234.694,90.712,234.346,91.056z"/>
	<path style="fill:#E9B634;" d="M307.887,85.567l-9.538,10.275h6.417c3.098,0,5.613-2.514,5.613-5.613
		C310.379,88.287,309.391,86.573,307.887,85.567z"/>
</g>
<g>
	<path style="fill:#D89F29;" d="M304.766,84.62h-6.817l-10.421,11.225h10.825l9.538-10.275
		C306.996,84.968,305.923,84.62,304.766,84.62z"/>
	<polygon style="fill:#D89F29;" points="277.347,84.62 266.926,95.845 277.747,95.845 288.168,84.62 	"/>
	<path style="fill:#D89F29;" d="M257.066,84.62l-9.44,10.17l-5.246-8.576c-2.69,0.898-4.977,2.2-6.937,3.873l6.073,9.912
		c0.247-0.348,0.483-0.715,0.775-1.01c2.118-2.114,5.826-3.147,11.341-3.147h3.828l10.428-11.225h-10.821V84.62z"/>
	<path style="fill:#D89F29;" d="M228,106.083l10.671,10.047c0.03-3.82,0.168-7.308,0.681-10.249l-9.141-8.606
		C229.048,99.954,228.39,102.928,228,106.083z"/>
</g>
<path style="fill:#5B4F3F;" d="M271.091,154.351c0,10.159-73.585,10.159-73.585,0v-21.276c0-10.163,8.236-18.398,18.394-18.398
	h36.796c10.159,0,18.394,8.236,18.394,18.398V154.351z"/>
<polygon style="fill:#DA8727;" points="321.657,72.972 316.65,87.741 325.967,100.227 310.386,100.032 301.384,112.754
	296.755,97.877 281.871,93.241 294.6,84.246 294.405,68.658 306.892,77.978 "/>
<polygon style="fill:#E9B634;" points="315.786,78.846 312.733,87.834 318.413,95.441 308.923,95.321 303.446,103.067
	300.624,94.004 291.562,91.187 299.307,85.709 299.184,76.216 306.798,81.896 "/>
<path style="fill:#BEB8B1;" d="M163.923,218.291c-7.117-7.091-5.19-20.572,4.296-30.087c9.493-9.527,22.948-11.498,30.073-4.404
	c7.117,7.091,5.197,20.561-4.303,30.084C184.51,223.406,171.043,225.381,163.923,218.291z"/>
<g>
</g>
<g>
</g>
<g>
</g>
<g>
</g>
<g>
</g>
<g>
</g>
<g>
</g>
<g>
</g>
<g>
</g>
<g>
</g>
<g>
</g>
<g>
</g>
<g>
</g>
<g>
</g>
<g>
</g>
</svg>
